<svg width="24" height="25" viewBox="0 0 24 25" fill="none" xmlns="http://www.w3.org/2000/svg">
<rect y="0.384644" width="24" height="24" rx="12" fill="#4F5662"/>
<path d="M16.985 15.5496C16.985 15.7296 16.945 15.9146 16.86 16.0946C16.775 16.2746 16.665 16.4446 16.52 16.6046C16.275 16.8746 16.005 17.0696 15.7 17.1946C15.4 17.3196 15.075 17.3846 14.725 17.3846C14.215 17.3846 13.67 17.2646 13.095 17.0196C12.52 16.7746 11.945 16.4446 11.375 16.0296C10.8 15.6096 10.255 15.1446 9.735 14.6296C9.22 14.1096 8.755 13.5646 8.34 12.9946C7.93 12.4246 7.6 11.8546 7.36 11.2896C7.12 10.7196 7 10.1746 7 9.65464C7 9.31464 7.06 8.98964 7.18 8.68964C7.3 8.38464 7.49 8.10464 7.755 7.85464C8.075 7.53964 8.425 7.38464 8.795 7.38464C8.935 7.38464 9.075 7.41464 9.2 7.47464C9.33 7.53464 9.445 7.62464 9.535 7.75464L10.695 9.38964C10.785 9.51464 10.85 9.62964 10.895 9.73964C10.94 9.84464 10.965 9.94964 10.965 10.0446C10.965 10.1646 10.93 10.2846 10.86 10.3996C10.795 10.5146 10.7 10.6346 10.58 10.7546L10.2 11.1496C10.145 11.2046 10.12 11.2696 10.12 11.3496C10.12 11.3896 10.125 11.4246 10.135 11.4646C10.15 11.5046 10.165 11.5346 10.175 11.5646C10.265 11.7296 10.42 11.9446 10.64 12.2046C10.865 12.4646 11.105 12.7296 11.365 12.9946C11.635 13.2596 11.895 13.5046 12.16 13.7296C12.42 13.9496 12.635 14.0996 12.805 14.1896C12.83 14.1996 12.86 14.2146 12.895 14.2296C12.935 14.2446 12.975 14.2496 13.02 14.2496C13.105 14.2496 13.17 14.2196 13.225 14.1646L13.605 13.7896C13.73 13.6646 13.85 13.5696 13.965 13.5096C14.08 13.4396 14.195 13.4046 14.32 13.4046C14.415 13.4046 14.515 13.4246 14.625 13.4696C14.735 13.5146 14.85 13.5796 14.975 13.6646L16.63 14.8396C16.76 14.9296 16.85 15.0346 16.905 15.1596C16.955 15.2846 16.985 15.4096 16.985 15.5496Z" stroke="white" stroke-width="0.75" stroke-miterlimit="10"/>
</svg>
