<?xml version="1.0" encoding="iso-8859-1"?>
<!-- Uploaded to: SVG Repo, www.svgrepo.com, Generator: SVG Repo Mixer Tools -->
<svg fill="#000000" height="800px" width="800px" version="1.1" id="Layer_1" xmlns="http://www.w3.org/2000/svg" xmlns:xlink="http://www.w3.org/1999/xlink" 
	 viewBox="0 0 512 512" xml:space="preserve">
<g>
	<g>
		<path d="M435.913,0H76.597c-5.621,0-10.179,4.557-10.179,10.179v198.489c0,5.622,4.558,10.179,10.179,10.179H109l31.216,217.537
			v65.437c0,5.622,4.558,10.179,10.179,10.179h211.722c5.621,0,10.179-4.557,10.179-10.179v-65.437l31.216-217.537h32.403
			c5.621,0,10.179-4.557,10.179-10.179V10.179C446.092,4.557,441.534,0,435.913,0z M351.937,491.642H160.573v-45.805h191.364
			V491.642z M353.294,425.479H159.216l-29.651-206.632h253.38L353.294,425.479z M425.734,198.489H86.776V20.358h338.958V198.489z"/>
	</g>
</g>
<g>
	<g>
		<path d="M384,69.217H128.509c-5.621,0-10.179,4.557-10.179,10.179s4.558,10.179,10.179,10.179H384
			c5.621,0,10.179-4.557,10.179-10.179S389.621,69.217,384,69.217z"/>
	</g>
</g>
<g>
	<g>
		<path d="M384,123.165h-13.742c-5.621,0-10.179,4.557-10.179,10.179s4.558,10.179,10.179,10.179H384
			c5.621,0,10.179-4.557,10.179-10.179S389.621,123.165,384,123.165z"/>
	</g>
</g>
<g>
	<g>
		<path d="M324.454,123.165H128.509c-5.621,0-10.179,4.557-10.179,10.179s4.558,10.179,10.179,10.179h195.944
			c5.621,0,10.179-4.557,10.179-10.179S330.075,123.165,324.454,123.165z"/>
	</g>
</g>
<g>
	<g>
		<path d="M498.077,50.821c-3.976-3.975-10.419-3.975-14.396,0l-17.813,17.813c-3.975,3.975-3.975,10.42,0,14.396
			c1.989,1.988,4.593,2.981,7.199,2.981c2.606,0,5.21-0.993,7.198-2.981l17.813-17.813
			C502.052,61.243,502.052,54.797,498.077,50.821z"/>
	</g>
</g>
<g>
	<g>
		<path d="M498.076,148.031l-17.812-17.813c-3.976-3.975-10.419-3.975-14.396,0c-3.975,3.975-3.975,10.42,0,14.396l17.813,17.813
			c1.988,1.988,4.593,2.981,7.198,2.981c2.605,0,5.21-0.993,7.198-2.981C502.051,158.452,502.051,152.007,498.076,148.031z"/>
	</g>
</g>
<g>
	<g>
		<path d="M46.131,68.635L28.319,50.822c-3.976-3.975-10.419-3.975-14.396,0c-3.975,3.975-3.975,10.42,0,14.396l17.813,17.813
			c1.988,1.988,4.593,2.981,7.198,2.981s5.21-0.993,7.198-2.981C50.106,79.057,50.106,72.611,46.131,68.635z"/>
	</g>
</g>
<g>
	<g>
		<path d="M46.132,130.218c-3.976-3.976-10.419-3.976-14.395,0l-17.813,17.813c-3.975,3.975-3.975,10.42,0,14.396
			c1.988,1.988,4.593,2.981,7.198,2.981s5.21-0.993,7.198-2.981l17.813-17.813C50.107,140.639,50.107,134.194,46.132,130.218z"/>
	</g>
</g>
</svg>